<svg width="133" height="42" viewBox="0 0 133 42" fill="none" xmlns="http://www.w3.org/2000/svg">
<path d="M55.728 31V13.12H67.608V16H58.992V20.584H67.128V23.464H58.992V28.12H67.608V31H55.728ZM69.7374 31V17.944H72.6894V20.968L72.3534 20.464C72.5934 19.52 73.0734 18.816 73.7934 18.352C74.5134 17.888 75.3614 17.656 76.3374 17.656C77.4094 17.656 78.3534 17.936 79.1694 18.496C79.9854 19.056 80.5134 19.792 80.7534 20.704L79.8654 20.776C80.2654 19.736 80.8654 18.96 81.6654 18.448C82.4654 17.92 83.3854 17.656 84.4254 17.656C85.3534 17.656 86.1774 17.864 86.8974 18.28C87.6334 18.696 88.2094 19.28 88.6254 20.032C89.0414 20.768 89.2494 21.624 89.2494 22.6V31H86.1054V23.344C86.1054 22.768 86.0014 22.272 85.7934 21.856C85.5854 21.44 85.2974 21.12 84.9294 20.896C84.5614 20.656 84.1134 20.536 83.5854 20.536C83.0894 20.536 82.6494 20.656 82.2654 20.896C81.8814 21.12 81.5854 21.44 81.3774 21.856C81.1694 22.272 81.0654 22.768 81.0654 23.344V31H77.9214V23.344C77.9214 22.768 77.8174 22.272 77.6094 21.856C77.4014 21.44 77.1054 21.12 76.7214 20.896C76.3534 20.656 75.9134 20.536 75.4014 20.536C74.9054 20.536 74.4654 20.656 74.0814 20.896C73.6974 21.12 73.4014 21.44 73.1934 21.856C72.9854 22.272 72.8814 22.768 72.8814 23.344V31H69.7374ZM91.9093 31V17.944H95.0533V31H91.9093ZM91.9093 16.48V13.12H95.0533V16.48H91.9093ZM97.9562 31V12.832H101.1V31H97.9562ZM104.003 31V17.944H107.147V31H104.003ZM104.003 16.48V13.12H107.147V16.48H104.003ZM116.242 31.288C114.898 31.288 113.722 30.984 112.714 30.376C111.706 29.768 110.922 28.944 110.362 27.904C109.802 26.864 109.522 25.712 109.522 24.448C109.522 23.136 109.802 21.976 110.362 20.968C110.938 19.944 111.714 19.136 112.69 18.544C113.682 17.952 114.786 17.656 116.002 17.656C117.026 17.656 117.922 17.824 118.69 18.16C119.474 18.496 120.138 18.96 120.682 19.552C121.226 20.144 121.642 20.824 121.93 21.592C122.218 22.344 122.362 23.16 122.362 24.04C122.362 24.264 122.346 24.496 122.314 24.736C122.298 24.976 122.258 25.184 122.194 25.36H112.114V22.96H120.418L118.93 24.088C119.074 23.352 119.034 22.696 118.81 22.12C118.602 21.544 118.25 21.088 117.754 20.752C117.274 20.416 116.69 20.248 116.002 20.248C115.346 20.248 114.762 20.416 114.25 20.752C113.738 21.072 113.346 21.552 113.074 22.192C112.818 22.816 112.722 23.576 112.786 24.472C112.722 25.272 112.826 25.984 113.098 26.608C113.386 27.216 113.802 27.688 114.346 28.024C114.906 28.36 115.546 28.528 116.266 28.528C116.986 28.528 117.594 28.376 118.09 28.072C118.602 27.768 119.002 27.36 119.29 26.848L121.834 28.096C121.578 28.72 121.178 29.272 120.634 29.752C120.09 30.232 119.442 30.608 118.69 30.88C117.954 31.152 117.138 31.288 116.242 31.288ZM126.233 31V27.64H129.401V31H126.233Z" fill="#070A0E"/>
<path d="M3.66675 21C3.66675 11.3347 11.8746 3.49995 22.0001 3.49995C22.8489 3.49995 22.9901 4.7127 22.2622 5.1327C20.7143 6.02478 19.3993 7.2414 18.4169 8.69043C17.4345 10.1395 16.8104 11.7829 16.5919 13.4962C16.3735 15.2096 16.5663 16.948 17.1559 18.5796C17.7455 20.2113 18.7164 21.6935 19.9949 22.914C21.2735 24.1344 22.8263 25.0612 24.5357 25.6239C26.245 26.1867 28.0662 26.3708 29.8611 26.1623C31.6561 25.9537 33.3777 25.358 34.8958 24.4203C36.4138 23.4825 37.6884 22.2273 38.6229 20.7497C39.0629 20.0567 40.3334 20.1897 40.3334 21C40.3334 22.9915 39.9851 24.9042 39.3434 26.6875H40.3334C40.6981 26.6875 41.0478 26.8257 41.3057 27.0719C41.5636 27.318 41.7084 27.6519 41.7084 28C41.7084 28.3481 41.5636 28.6819 41.3057 28.928C41.0478 29.1742 40.6981 29.3125 40.3334 29.3125H3.66675C3.30208 29.3125 2.95234 29.1742 2.69448 28.928C2.43661 28.6819 2.29175 28.3481 2.29175 28C2.29175 27.6519 2.43661 27.318 2.69448 27.0719C2.95234 26.8257 3.30208 26.6875 3.66675 26.6875H4.65675C3.99917 24.857 3.66462 22.935 3.66675 21ZM9.16675 31.9375C8.80208 31.9375 8.45234 32.0757 8.19448 32.3219C7.93661 32.568 7.79175 32.9019 7.79175 33.25C7.79175 33.5981 7.93661 33.9319 8.19448 34.178C8.45234 34.4242 8.80208 34.5625 9.16675 34.5625H34.8334C35.1981 34.5625 35.5478 34.4242 35.8057 34.178C36.0636 33.9319 36.2084 33.5981 36.2084 33.25C36.2084 32.9019 36.0636 32.568 35.8057 32.3219C35.5478 32.0757 35.1981 31.9375 34.8334 31.9375H9.16675ZM14.6667 37.1875C14.3021 37.1875 13.9523 37.3257 13.6945 37.5719C13.4366 37.818 13.2917 38.1519 13.2917 38.5C13.2917 38.8481 13.4366 39.1819 13.6945 39.428C13.9523 39.6742 14.3021 39.8125 14.6667 39.8125H29.3334C29.6981 39.8125 30.0478 39.6742 30.3057 39.428C30.5636 39.1819 30.7084 38.8481 30.7084 38.5C30.7084 38.1519 30.5636 37.818 30.3057 37.5719C30.0478 37.3257 29.6981 37.1875 29.3334 37.1875H14.6667ZM36.4834 4.0372C36.4186 3.87865 36.3052 3.74244 36.158 3.64642C36.0108 3.5504 35.8367 3.49902 35.6584 3.49902C35.4801 3.49902 35.306 3.5504 35.1588 3.64642C35.0116 3.74244 34.8982 3.87865 34.8334 4.0372L34.0451 5.95345C34.0009 6.06176 33.9338 6.16023 33.848 6.24272C33.7622 6.32521 33.6596 6.38997 33.5464 6.43295L31.5463 7.18895C31.3806 7.25193 31.2386 7.3609 31.1385 7.50176C31.0385 7.64262 30.985 7.80889 30.985 7.97908C30.985 8.14927 31.0385 8.31554 31.1385 8.4564C31.2386 8.59726 31.3806 8.70623 31.5463 8.76921L33.5464 9.5252C33.6596 9.56763 33.7624 9.63198 33.8482 9.71421C33.934 9.79644 34.0011 9.89476 34.0451 10.003L34.8334 11.9175C35.1304 12.635 36.1901 12.635 36.4834 11.9175L37.2717 10.0012C37.3164 9.89305 37.3838 9.79482 37.4699 9.71263C37.556 9.63044 37.6589 9.56604 37.7722 9.52345L39.7724 8.76746C39.9381 8.70448 40.0801 8.59551 40.1802 8.45465C40.2802 8.31379 40.3337 8.14752 40.3337 7.97733C40.3337 7.80714 40.2802 7.64087 40.1802 7.50001C40.0801 7.35915 39.9381 7.25018 39.7724 7.1872L37.7722 6.4312C37.6588 6.38842 37.5558 6.32376 37.4696 6.24125C37.3835 6.15875 37.3162 6.06018 37.2717 5.9517L36.4834 4.0372Z" fill="black"/>
<path d="M29.394 14.2274C29.3292 14.0688 29.2158 13.9326 29.0686 13.8366C28.9214 13.7406 28.7472 13.6892 28.569 13.6892C28.3907 13.6892 28.2165 13.7406 28.0693 13.8366C27.9221 13.9326 27.8087 14.0688 27.744 14.2274L27.4561 14.9256C27.4117 15.0336 27.3445 15.1318 27.2588 15.2139C27.173 15.2961 27.0704 15.3606 26.9575 15.4034L26.2278 15.6799C26.0622 15.7429 25.9201 15.8518 25.8201 15.9927C25.72 16.1336 25.6665 16.2998 25.6665 16.47C25.6665 16.6402 25.72 16.8065 25.8201 16.9473C25.9201 17.0882 26.0622 17.1972 26.2278 17.2601L26.9575 17.5349C27.1866 17.6224 27.3663 17.7939 27.4561 18.0144L27.744 18.7126C28.0391 19.4301 29.0988 19.4301 29.394 18.7126L29.6818 18.0126C29.7262 17.9047 29.7934 17.8065 29.8792 17.7243C29.9649 17.6422 30.0675 17.5777 30.1805 17.5349L30.9101 17.2601C31.0758 17.1972 31.2178 17.0882 31.3179 16.9473C31.4179 16.8065 31.4714 16.6402 31.4714 16.47C31.4714 16.2998 31.4179 16.1336 31.3179 15.9927C31.2178 15.8518 31.0758 15.7429 30.9101 15.6799L30.1805 15.4034C30.0675 15.3606 29.9649 15.2961 29.8792 15.2139C29.7934 15.1318 29.7262 15.0336 29.6818 14.9256L29.394 14.2256V14.2274Z" fill="black"/>
</svg>
